<mxfile host="app.diagrams.net" modified="2021-01-11T03:23:06.664Z" agent="5.0 (Macintosh; Intel Mac OS X 10_15_6) AppleWebKit/537.36 (KHTML, like Gecko) Chrome/87.0.4280.141 Safari/537.36" etag="OGOC7pODBJmOm4QyyBOh" version="14.1.8" type="github">
  <diagram id="o-HRzcjP3IMkBWc5Xvac" name="Page-1">
    <mxGraphModel dx="2253" dy="698" grid="1" gridSize="10" guides="1" tooltips="1" connect="1" arrows="1" fold="1" page="1" pageScale="1" pageWidth="827" pageHeight="1169" math="0" shadow="0">
      <root>
        <mxCell id="0" />
        <mxCell id="1" parent="0" />
        <mxCell id="Kd8Lmp-M1Nt-kJ-KPY58-20" value="" style="rounded=0;whiteSpace=wrap;html=1;" vertex="1" parent="1">
          <mxGeometry x="130" y="290" width="400" height="360" as="geometry" />
        </mxCell>
        <mxCell id="Kd8Lmp-M1Nt-kJ-KPY58-1" value="" style="rounded=0;whiteSpace=wrap;html=1;" vertex="1" parent="1">
          <mxGeometry x="330" y="330" width="170" height="280" as="geometry" />
        </mxCell>
        <mxCell id="Kd8Lmp-M1Nt-kJ-KPY58-24" value="" style="edgeStyle=orthogonalEdgeStyle;rounded=0;orthogonalLoop=1;jettySize=auto;html=1;" edge="1" parent="1" source="Kd8Lmp-M1Nt-kJ-KPY58-4" target="Kd8Lmp-M1Nt-kJ-KPY58-5">
          <mxGeometry relative="1" as="geometry" />
        </mxCell>
        <mxCell id="Kd8Lmp-M1Nt-kJ-KPY58-4" value="SDK" style="rounded=0;whiteSpace=wrap;html=1;" vertex="1" parent="1">
          <mxGeometry x="357.5" y="450" width="115" height="40" as="geometry" />
        </mxCell>
        <mxCell id="Kd8Lmp-M1Nt-kJ-KPY58-5" value="SDK DEMO" style="rounded=0;whiteSpace=wrap;html=1;" vertex="1" parent="1">
          <mxGeometry x="355" y="350" width="120" height="60" as="geometry" />
        </mxCell>
        <mxCell id="Kd8Lmp-M1Nt-kJ-KPY58-8" value="研测平台" style="rounded=0;whiteSpace=wrap;html=1;" vertex="1" parent="1">
          <mxGeometry x="-20" y="400" width="120" height="60" as="geometry" />
        </mxCell>
        <mxCell id="Kd8Lmp-M1Nt-kJ-KPY58-10" value="uuid,authkey,pid,token" style="text;html=1;strokeColor=none;fillColor=none;align=center;verticalAlign=middle;whiteSpace=wrap;rounded=0;" vertex="1" parent="1">
          <mxGeometry x="220" y="400" width="40" height="20" as="geometry" />
        </mxCell>
        <mxCell id="Kd8Lmp-M1Nt-kJ-KPY58-12" value="" style="endArrow=classic;html=1;exitX=1;exitY=0.5;exitDx=0;exitDy=0;entryX=0;entryY=0.357;entryDx=0;entryDy=0;entryPerimeter=0;" edge="1" parent="1" source="Kd8Lmp-M1Nt-kJ-KPY58-8" target="Kd8Lmp-M1Nt-kJ-KPY58-1">
          <mxGeometry width="50" height="50" relative="1" as="geometry">
            <mxPoint x="390" y="390" as="sourcePoint" />
            <mxPoint x="440" y="340" as="targetPoint" />
          </mxGeometry>
        </mxCell>
        <mxCell id="Kd8Lmp-M1Nt-kJ-KPY58-13" value="rpc 代理服务" style="rounded=0;whiteSpace=wrap;html=1;" vertex="1" parent="1">
          <mxGeometry x="150" y="540" width="110" height="60" as="geometry" />
        </mxCell>
        <mxCell id="Kd8Lmp-M1Nt-kJ-KPY58-14" value="" style="endArrow=classic;html=1;exitX=1;exitY=0.5;exitDx=0;exitDy=0;" edge="1" parent="1" source="Kd8Lmp-M1Nt-kJ-KPY58-13">
          <mxGeometry width="50" height="50" relative="1" as="geometry">
            <mxPoint x="390" y="450" as="sourcePoint" />
            <mxPoint x="329" y="568" as="targetPoint" />
          </mxGeometry>
        </mxCell>
        <mxCell id="Kd8Lmp-M1Nt-kJ-KPY58-15" value="rpc" style="text;html=1;strokeColor=none;fillColor=none;align=center;verticalAlign=middle;whiteSpace=wrap;rounded=0;" vertex="1" parent="1">
          <mxGeometry x="270" y="540" width="40" height="20" as="geometry" />
        </mxCell>
        <mxCell id="Kd8Lmp-M1Nt-kJ-KPY58-16" value="" style="endArrow=classic;html=1;exitX=0.433;exitY=1.017;exitDx=0;exitDy=0;exitPerimeter=0;entryX=0;entryY=0.5;entryDx=0;entryDy=0;" edge="1" parent="1" source="Kd8Lmp-M1Nt-kJ-KPY58-8" target="Kd8Lmp-M1Nt-kJ-KPY58-13">
          <mxGeometry width="50" height="50" relative="1" as="geometry">
            <mxPoint x="390" y="450" as="sourcePoint" />
            <mxPoint x="440" y="400" as="targetPoint" />
          </mxGeometry>
        </mxCell>
        <mxCell id="Kd8Lmp-M1Nt-kJ-KPY58-17" value="测试用例下发" style="edgeLabel;html=1;align=center;verticalAlign=middle;resizable=0;points=[];" vertex="1" connectable="0" parent="Kd8Lmp-M1Nt-kJ-KPY58-16">
          <mxGeometry x="0.1352" y="-3" relative="1" as="geometry">
            <mxPoint as="offset" />
          </mxGeometry>
        </mxCell>
        <mxCell id="Kd8Lmp-M1Nt-kJ-KPY58-21" value="&lt;font style=&quot;font-size: 21px&quot;&gt;容器&lt;/font&gt;" style="text;html=1;strokeColor=none;fillColor=none;align=center;verticalAlign=middle;whiteSpace=wrap;rounded=0;" vertex="1" parent="1">
          <mxGeometry x="160" y="310" width="60" height="40" as="geometry" />
        </mxCell>
        <mxCell id="Kd8Lmp-M1Nt-kJ-KPY58-25" value="&lt;font style=&quot;font-size: 16px&quot;&gt;影子设备固件&lt;/font&gt;" style="text;html=1;strokeColor=none;fillColor=none;align=center;verticalAlign=middle;whiteSpace=wrap;rounded=0;" vertex="1" parent="1">
          <mxGeometry x="357.5" y="530" width="132.5" height="50" as="geometry" />
        </mxCell>
      </root>
    </mxGraphModel>
  </diagram>
</mxfile>
